<?xml version="1.0" standalone="no"?>
<!DOCTYPE svg PUBLIC "-//W3C//DTD SVG 20010904//EN"
 "http://www.w3.org/TR/2001/REC-SVG-20010904/DTD/svg10.dtd">
<svg version="1.0" xmlns="http://www.w3.org/2000/svg"
 width="700.000000pt" height="700.000000pt" viewBox="0 0 700.000000 700.000000"
 preserveAspectRatio="xMidYMid meet">
<metadata>
Created by potrace 1.11, written by Peter Selinger 2001-2013
</metadata>
<g transform="translate(0.000000,700.000000) scale(0.100000,-0.100000)"
fill="#000000" stroke="none">
<path d="M3980 6435 c-22 -10 -306 -286 -750 -731 l-716 -715 -73 111 c-83
125 -189 240 -222 240 -82 0 -245 -215 -422 -559 l-80 -154 -57 144 c-199 502
-457 939 -553 939 -118 0 -427 -562 -643 -1167 -131 -370 -218 -717 -260
-1044 -20 -150 -22 -498 -5 -649 50 -430 188 -717 421 -877 87 -59 269 -123
351 -123 35 0 34 9 15 -195 -8 -82 -20 -240 -26 -350 -6 -110 -13 -241 -16
-292 l-6 -92 -241 -3 c-238 -3 -243 -3 -299 -30 -76 -35 -142 -104 -181 -186
-27 -58 -31 -77 -30 -147 0 -114 28 -182 107 -261 43 -43 79 -68 121 -85 l60
-24 3025 0 3025 0 60 24 c42 17 78 42 121 85 79 79 107 147 107 261 1 70 -3
89 -30 147 -56 119 -169 205 -285 216 l-48 5 0 1377 0 1378 33 7 c113 24 179
152 133 258 -13 29 -2420 2445 -2474 2483 -33 23 -120 28 -162 9z m538 -908
l462 -462 -530 -530 c-292 -292 -540 -545 -552 -563 -11 -18 -24 -49 -28 -69
-11 -46 10 -126 41 -160 31 -34 95 -63 139 -63 80 0 102 19 662 577 l539 537
504 -504 505 -505 0 -1427 0 -1427 -1082 -3 c-596 -2 -1257 -2 -1470 0 l-388
3 0 550 0 549 -372 -2 -373 -3 -3 -547 -2 -548 -365 0 -365 0 0 1427 0 1428
1102 1102 c607 607 1105 1103 1108 1103 3 0 213 -208 468 -463z m-2858 -4062
l0 -545 -194 0 -194 0 -6 118 c-21 381 -29 501 -42 626 -20 193 -20 186 19
186 88 1 292 76 362 134 17 14 36 25 43 26 9 0 12 -115 12 -545z m1650 -910
l0 -365 -365 0 -365 0 0 365 0 365 365 0 365 0 0 -365z"/>
<path d="M2575 3677 c-3 -6 -4 -174 -3 -372 l3 -360 373 -3 372 -2 0 375 0
375 -370 0 c-288 0 -372 -3 -375 -13z"/>
<path d="M4790 3315 l0 -375 460 0 460 0 0 375 0 375 -460 0 -460 0 0 -375z"/>
<path d="M4790 1660 l0 -370 93 -2 c189 -5 517 -5 670 0 l157 5 0 368 0 369
-460 0 -460 0 0 -370z"/>
</g>
</svg>
